<svg xmlns="http://www.w3.org/2000/svg" viewBox="82.65 8.68 780.7 756.65"><path fill="#2C8222" d="m472.5 8.688 3.745.005c18.105.045 35.846.45 53.755 3.307l3.489.536C612.619 24.934 684.947 60.024 744 114l3.121 2.805C754.531 123.5 761.393 130.51 768 138l1.546 1.73C787.88 160.248 803.676 182.927 817 207l1.413 2.551C840.599 250.014 855.11 294.2 861 340l.261 2.018c1.858 14.843 2.1 29.6 2.052 44.545l-.007 3.622c-.05 17.121-.35 33.91-3.306 50.815l-.618 3.665C845.12 527.685 804.438 608.42 740 664a4594.887 4594.887 0 0 0-4.75 4.375c-6.162 5.537-12.664 10.607-19.25 15.625l-1.769 1.352c-51.139 38.854-111.191 64.212-174.418 74.898l-2.216.379c-21.366 3.619-42.437 4.75-64.097 4.683l-3.745-.005c-18.105-.045-35.846-.45-53.755-3.307l-3.489-.536C333.381 749.066 261.053 713.976 202 660l-3.121-2.805C191.469 650.5 184.607 643.49 178 636l-1.546-1.73C158.12 613.752 142.324 591.073 129 567l-1.413-2.551C105.401 523.986 90.89 479.8 85 434l-.261-2.018c-1.858-14.843-2.1-29.6-2.052-44.545l.007-3.622c.05-17.121.35-33.91 3.306-50.815l.618-3.665C100.88 246.315 141.562 165.58 206 110a4918.91 4918.91 0 0 0 4.75-4.375C216.912 100.088 223.414 95.018 230 90l1.769-1.352C282.908 49.794 342.96 24.436 406.187 13.75l2.216-.379c21.366-3.619 42.437-4.75 64.097-4.684Z"/><path fill="#FAFCF9" d="M698.445 374.441c6.46 4.595 11.119 10.623 12.555 18.559.77 10.845.025 18.908-6.625 27.75-4.82 5.3-12.518 8.968-19.633 9.488-11.25.216-18.6-1.522-27.015-9.3-7.085-7.951-7.477-17.733-6.945-27.875.7-6.63 4.232-11.426 8.905-15.938 11.302-8.936 26.262-10.05 38.758-2.684Z"/><path fill="#F7FAF7" d="M470.023 376.43c3.691 2.932 6.86 6.336 8.977 10.57.157 2.77.258 5.517.316 8.29l.063 2.48c.066 2.618.125 5.236.183 7.855l.131 5.32c.108 4.352.209 8.703.307 13.055l4 2v3c-2.082.108-4.166.186-6.25.25l-3.516.14c-3.81-.46-4.89-1.441-7.234-4.39l-1.688 1.875c-5.07 4.66-10.476 4.553-17.078 4.441-5.913-.578-9.618-2.617-13.671-6.878-3.43-5.35-3.498-11.283-2.563-17.438 2.536-4.872 6.102-7.934 11.188-9.938L447 396l1.995-.56c3.378-.741 6.814-.542 10.255-.502l2.258.013c1.83.012 3.661.03 5.492.049a374.83 374.83 0 0 0-.313-5.75l-.175-3.234c-.567-3.339-.999-4.754-3.512-7.016-3.176-.916-3.176-.916-6.688-1.25-1.179-.15-2.358-.3-3.574-.453L450 377l-.516 1.758c-1.928 6.216-3.867 11.497-9.484 15.242-4.54-.54-4.54-.54-6-2-.468-3.344-.647-5.89 1.094-8.879 8.52-10.491 23.149-14.188 34.93-6.691Z"/><path fill="#FAFCFA" d="m283 370 1 8 2.313-2.375c5.974-5.835 11.639-5.985 19.675-5.906 5.65.527 9.374 2.686 13.387 6.594 3.637 6.015 3.942 12.05 4.04 18.902.018.856.038 1.711.058 2.593.06 2.71.106 5.42.152 8.13.038 1.847.077 3.694.117 5.54.096 4.508.18 9.015.258 13.522l4 1v3h-23v-3l4-2c.1-4.82.172-9.639.22-14.46.02-1.635.047-3.272.082-4.907.638-12.976.638-12.976-4.302-24.633-4.449-2.966-8.781-2.64-14-2-3.002 1.801-4.452 2.903-6 6a266.811 266.811 0 0 0-.098 9.164l.005 2.75c.005 2.903.018 5.807.03 8.711A7368.697 7368.697 0 0 0 285 425l4 1v3h-23v-3l4-2v-44l-4-1v-4c2.269-.84 4.54-1.672 6.813-2.5l1.947-.723C277.65 370.73 279.9 370 283 370Z"/><path fill="#F8FBF8" d="m508 370 1 7 2.688-2.375c5.211-4.606 10.43-5.066 17.167-4.941 6.161.62 11.256 2.473 15.707 6.816 2.047 3.56 2.555 6.649 2.643 10.718l.06 2.486.051 2.655.063 2.74c.066 2.884.125 5.768.183 8.651l.131 5.871c.107 4.793.209 9.586.307 14.379l4 2v3h-22v-3l3-1c.074-5.444.129-10.888.165-16.333.015-1.85.035-3.701.061-5.552.037-2.666.054-5.332.067-7.998.015-.822.03-1.644.047-2.491.001-4.948-.553-8.36-3.34-12.626-4.449-2.966-8.781-2.64-14-2-3.002 1.801-4.452 2.903-6 6a266.811 266.811 0 0 0-.098 9.164l.005 2.75c.005 2.903.018 5.807.03 8.711A7368.697 7368.697 0 0 0 510 425l4 1v3h-23v-3l4-2v-43l-4-2v-4c2.269-.84 4.54-1.672 6.813-2.5l1.947-.723C502.65 370.73 504.9 370 508 370Z"/><path fill="#F8FBF7" d="m375 375 3 2c.293 2.602.293 2.602.188 5.625l-.083 3.04L378 388h-4l-.734-1.68-1.016-2.195-.984-2.18c-1.566-2.407-2.551-3.026-5.266-3.945-3.106-.391-3.106-.391-6.438-.375l-3.37-.086c-3.863.558-5.5 1.675-8.192 4.461-.734 3.537-.734 3.537 1 7 3.053 2.235 6.531 3.528 10 5 18.735 8.47 18.735 8.47 23 17 .556 4.558.407 8.101-1.5 12.313-5.333 5.732-11.706 7.452-19.355 7.925-8.346.21-15.744.2-23.145-4.238-2-2-2-2-2.195-5.258l.07-3.867.055-3.883L336 411c1.895.29 1.895.29 4 1 1.64 3.279 2.842 6.527 4 10 3.825 2.075 7.26 2.298 11.563 2.313l3.378.05c3.35-.398 4.731-.952 7.059-3.363.75-3.415.75-3.415 0-7-3.67-4.446-7.635-6.545-12.75-8.875-15.342-7.31-15.342-7.31-18.25-13.125-.602-4.169-.834-8.184.953-12.074C345.174 367.71 362.636 369.189 375 375Z"/><path fill="#318628" d="M685 376c5.514 2.545 8.388 6.671 11 12 2.948 8.567 1.93 20.922-2 29-3.101 3.817-6.2 6.562-11.148 7.336-5.444.095-8.702-.475-12.852-4.336-5.944-9.468-6.71-21.151-4.352-31.977 3.478-8.65 9.823-14.009 19.352-12.023Z"/><path fill="#F9FBF9" d="M599.582 372.945c3.85 2.272 6.881 4.752 8.418 9.055 0 4.317-.341 6.268-3.25 9.5-2.75 1.5-2.75 1.5-5.375 1.688-2.92-1.46-3.647-3.052-4.75-6.067-1.08-3.665-1.902-7.37-2.625-11.121-5.806-.741-9.182.605-13.91 4.031-4.516 4.255-7.306 9.85-7.528 16.094.78 6.91 1.835 12.401 6.438 17.875 2.268 1.588 4.507 2.753 7 4l2 1c10.055 1.005 18.56-1.68 27-7l2 3c-4.786 6.776-9.195 11.702-17 15-9.533 1.626-19.185.764-27.574-4.156-3.673-2.792-6.19-5.83-8.426-9.844l-1.629-2.723c-1.704-4.073-1.815-7.352-1.746-11.714l-.035-2.198c.04-7.51 2.562-13.146 7.605-18.728 8.618-7.816 22.222-11.78 33.387-7.692Z"/><path fill="#FCFDFC" d="M403 354h7v20h14v5h-14c.044 5.463.114 10.925.208 16.388.028 1.857.049 3.715.063 5.572.021 2.674.068 5.347.12 8.02l.003 2.507c.102 4.026.325 6.065 2.517 9.555 1.87 2.113 1.87 2.113 4.124 2.306l2.027-.286L423 423c2 2 2 2 3 4-5.75 4.029-11.202 3.746-18 3-5.417-1.656-8.378-5.088-11-10-.522-3.197-.468-6.322-.39-9.555.005-.901.01-1.803.017-2.732.022-2.863.072-5.725.123-8.588.02-1.948.038-3.896.055-5.844.044-4.76.113-9.52.195-14.281h-11v-3l11-3 .75-3.875c1.162-5.295 3.113-10.157 5.25-15.125Z"/><path fill="#FEFEFE" d="M232 347h22v3l-4 1v73l4 2v3h-22v-3l4-2v-72l-4-2v-3Zm406 25 1 52 4 2v3h-22v-3l4-2v-42l-4-2v-3c2.269-.84 4.54-1.672 6.813-2.5l1.947-.723C632.65 372.73 634.9 372 638 372Z"/><path fill="#2C8222" d="M467 398v22c-7.064 3.027-11.523 4.07-19 3-3.25-1.813-3.25-1.813-5-5-.937-4.535-1.306-8.872 1.191-12.941C450.36 399.129 458.797 398 467 398Z"/><path fill="#FAFCFA" d="M634 345c3.323 2.456 4.776 3.926 5.625 8-.856 4.107-2.244 5.554-5.625 8-3.563.625-3.563.625-7 0-3.213-2.719-3.906-4.407-4.563-8.563.563-3.437.563-3.437 2.688-5.875 3.41-1.853 5.057-2.278 8.875-1.562Z"/><path fill="#E5EFE4" d="M266 626c2.625.375 2.625.375 5 1 .625 1.875.625 1.875 1 4l-2 2c-2.625-.375-2.625-.375-5-1-.625-1.875-.625-1.875-1-4l2-2Z"/><path fill="#E7F1E6" d="M785 358c2.125.375 2.125.375 4 1 .625 2.375.625 2.375 1 5l-2 2c-2.125-.375-2.125-.375-4-1-.625-2.375-.625-2.375-1-5l2-2Z"/><path fill="#F4F8F4" d="M320 665c2.625.375 2.625.375 5 1 .043 1.666.04 3.334 0 5-1 1-1 1-3.563 1.063L319 672c-.625-2.375-.625-2.375-1-5l2-2Z"/><path fill="#F2F7F2" d="M284 641c2.007.287 4.009.619 6 1l-1 5a88.406 88.406 0 0 1-5 1c-1-1-1-1-1.125-3.5C283 642 283 642 284 641Z"/><path fill="#EDF4EC" d="M153 365c1.675.286 3.344.618 5 1v5c-2.375.625-2.375.625-5 1l-2-2c.536-3.536.536-3.536 2-5Z"/><path fill="#E9F2E8" d="M156 341h4c1.125 4.75 1.125 4.75 0 7h-5c-.625-2.375-.625-2.375-1-5l2-2Z"/><path fill="#F1F7F1" d="M629.563 113.938 632 114c.625 2.375.625 2.375 1 5l-2 2c-2.125-.375-2.125-.375-4-1a88.406 88.406 0 0 1-1-5c1-1 1-1 3.563-1.063Z"/><path fill="#EAF2E9" d="M568 86c2.625.375 2.625.375 5 1l-1 5-5 1c-.625-2.375-.625-2.375-1-5l2-2Z"/><path fill="#EEF5ED" d="M156.063 418.938 159 419v6h-6a88.406 88.406 0 0 1-1-5c1-1 1-1 4.063-1.063Z"/><path fill="#E7F1E6" d="M712 182c1.675.286 3.344.618 5 1v5c-2.375.625-2.375.625-5 1l-2-2c.536-3.536.536-3.536 2-5Z"/><path fill="#ECF3EB" d="M536 77c2.625.375 2.625.375 5 1l-1 5-5 1c-.625-2.375-.625-2.375-1-5l2-2Z"/><path fill="#E4EFE2" d="M255 636c1.675.286 3.344.618 5 1 .625 1.875.625 1.875 1 4l-2 2c-2.125-.375-2.125-.375-4-1a88.406 88.406 0 0 1-1-5l1-1Z"/><path fill="#EFF5EE" d="M153 397c1.675.286 3.344.618 5 1 .625 1.875.625 1.875 1 4l-2 2c-2.125-.375-2.125-.375-4-1a88.406 88.406 0 0 1-1-5l1-1Z"/><path fill="#E7F0E6" d="M153 376c2.063.438 2.063.438 4 1 .625 1.875.625 1.875 1 4l-2 2c-2.625-.375-2.625-.375-5-1 .875-4.875.875-4.875 2-6Z"/><path fill="#E8F1E7" d="M704 173c1.675.286 3.344.618 5 1v5c-2.375.625-2.375.625-5 1l-2-2c.536-3.536.536-3.536 2-5Z"/><path fill="#EDF4EC" d="M638 119c2.063.438 2.063.438 4 1 .625 1.875.625 1.875 1 4l-2 2c-2.625-.375-2.625-.375-5-1 .875-4.875.875-4.875 2-6Z"/><path fill="#DCEADA" d="M599 97c2.063.438 2.063.438 4 1l1 5c-2.375.625-2.375.625-5 1l-2-2c.536-3.536.536-3.536 2-5Z"/><path fill="#E7F1E6" d="M427 73c1.675.286 3.344.618 5 1 .625 1.875.625 1.875 1 4l-2 2c-2.125-.375-2.125-.375-4-1a88.406 88.406 0 0 1-1-5l1-1Z"/><path fill="#F4F8F3" d="M216 572c1.675.286 3.344.618 5 1v5a88.406 88.406 0 0 1-5 1c-1-1-1-1-1.125-3.5C215 573 215 573 216 572Z"/><path fill="#ECF3EB" d="m161 461 5 1v5c-1.813.688-1.813.688-4 1-1.75-1.438-1.75-1.438-3-3l2-4Z"/><path fill="#F3F7F2" d="M158.563 330.938 161 331a88.406 88.406 0 0 1 1 5c-1 1-1 1-3.563 1.063L156 337a88.406 88.406 0 0 1-1-5c1-1 1-1 3.563-1.063Z"/><path fill="#ECF4EB" d="M761 264h5l1 5-4 2c-1.563-1.25-1.563-1.25-3-3 .313-2.188.313-2.188 1-4Z"/><path fill="#EBF3EA" d="M757 254c2.125.375 2.125.375 4 1 1.125 3.75 1.125 3.75 0 6l-5-1c-.625-1.875-.625-1.875-1-4l2-2Zm-27-46c1.675.286 3.344.618 5 1l1 3-2 3-4-1a88.406 88.406 0 0 1-1-5l1-1Z"/><path fill="#E9F2E8" d="M592.563 93.938 595 94a88.406 88.406 0 0 1 1 5c-1 1-1 1-3.563 1.063L590 100a88.406 88.406 0 0 1-1-5c1-1 1-1 3.563-1.063Z"/><path fill="#EAF2E9" d="M549 80c2.063.438 2.063.438 4 1 .625 1.875.625 1.875 1 4l-2 2c-2.625-.375-2.625-.375-5-1 .875-4.875.875-4.875 2-6Z"/><path fill="#E5EFE4" d="M369 687h5v6c-1.875.625-1.875.625-4 1l-2-2c.375-2.625.375-2.625 1-5Z"/><path fill="#EBF3EA" d="M774.563 294.938 777 295a88.406 88.406 0 0 1 1 5c-1 1-1 1-3.563 1.063L772 301a88.406 88.406 0 0 1-1-5c1-1 1-1 3.563-1.063Z"/><path fill="#E5EFE4" d="M559 83c2.125.375 2.125.375 4 1 .625 1.875.625 1.875 1 4l-2 2c-2.125-.375-2.125-.375-4-1-.625-1.875-.625-1.875-1-4l2-2Z"/><path fill="#F1F7F1" d="M524 76c1.675.286 3.344.618 5 1l1 5h-6a88.406 88.406 0 0 1-1-5l1-1Z"/><path fill="#F0F6F0" d="M359 684c1.675.286 3.344.618 5 1l-1 5c-1.938.563-1.938.563-4 1-1-1-1-1-1.125-3.5C358 685 358 685 359 684Z"/><path fill="#F3F8F2" d="M292 648h5c.625 1.875.625 1.875 1 4l-2 2c-2.625-.375-2.625-.375-5-1l1-5Z"/><path fill="#EEF5ED" d="M236 597c1.675.286 3.344.618 5 1l-1 5c-1.875.625-1.875.625-4 1l-2-2c.536-3.536.536-3.536 2-5Zm-81-190h3c.381 1.991.713 3.993 1 6-1 1-1 1-3.563 1.063L153 414c-.125-2.375-.125-2.375 0-5l2-2Z"/><path fill="#F7FAF6" d="M150 317c2.125.375 2.125.375 4 1v5l-5 1c-.625-2.375-.625-2.375-1-5l2-2Z"/><path fill="#E7F1E6" d="M771 285c2.625.375 2.625.375 5 1l-1 5h-5c-.625-1.875-.625-1.875-1-4l2-2Z"/><path fill="#F6F9F5" d="M736 217h5l1 5c-2.375.625-2.375.625-5 1l-2-2c.375-2.125.375-2.125 1-4Z"/><path fill="#DBEADA" d="M724 199c2.625.375 2.625.375 5 1l-1 5h-5c-.625-1.875-.625-1.875-1-4l2-2Z"/><path fill="#EAF3E9" d="M718 189c2.625.375 2.625.375 5 1l-1 5h-5c-.625-1.875-.625-1.875-1-4l2-2Z"/><path fill="#F5F9F4" d="M696 167h5l1 5c-2.375.625-2.375.625-5 1l-2-2c.375-2.125.375-2.125 1-4Z"/><path fill="#EDF4EC" d="M680 149c2.125.375 2.125.375 4 1v5l-5 1c-.625-2.375-.625-2.375-1-5l2-2Z"/><path fill="#E9F2E8" d="M673 145c2.625.375 2.625.375 5 1l-1 5h-5c-.625-1.875-.625-1.875-1-4l2-2Z"/><path fill="#EAF3EA" d="M645 124c2.625.375 2.625.375 5 1l-1 5h-5c-.625-1.875-.625-1.875-1-4l2-2Z"/><path fill="#F0F6EF" d="M617 107c2.125.375 2.125.375 4 1v5l-5 1c-.625-2.375-.625-2.375-1-5l2-2Z"/><path fill="#EAF2E9" d="M608 103h5c.625 1.875.625 1.875 1 4l-2 2c-2.625-.375-2.625-.375-5-1l1-5Z"/><path fill="#EEF4EE" d="M442 703c1.675.286 3.344.618 5 1l-1 5-4 1a128.624 128.624 0 0 1-1-6l1-1Z"/><path fill="#EAF2E9" d="M321 677h5l1 5c-1.813.625-1.813.625-4 1l-3-2 1-4Z"/><path fill="#EBF3EA" d="M229 590h5c.625 1.875.625 1.875 1 4l-2 2c-2.625-.375-2.625-.375-5-1l1-5Z"/><path fill="#F7FAF6" d="M208 562h5l1 5-4 2c-2-2-2-2-2.125-4.625L208 562Z"/><path fill="#E8F1E7" d="M179 511h4a88.406 88.406 0 0 1 1 5c-1 1-1 1-3.563 1.063L178 517c-.625-1.875-.625-1.875-1-4l2-2Z"/><path fill="#EFF6EE" d="M160 451c2.625.375 2.625.375 5 1l-1 5h-5c-.625-1.875-.625-1.875-1-4l2-2Z"/><path fill="#EDF4EC" d="M155 428c2.063.438 2.063.438 4 1l1 5c-3.75 1.125-3.75 1.125-6 0a99.984 99.984 0 0 1 0-5l1-1Z"/><path fill="#E1EDE0" d="M788 391c2 .25 2 .25 4 1l1 3-3 3-4-2c.875-3.875.875-3.875 2-5Z"/><path fill="#E9F2E8" d="M386 83c2.063.438 2.063.438 4 1 .625 1.875.625 1.875 1 4l-2 2h-4c-.043-2-.04-4 0-6l1-1Z"/><path fill="#F0F6EF" d="M515 75h4a88.406 88.406 0 0 1 1 5c-1 1-1 1-3.563 1.063L514 81c-.625-1.875-.625-1.875-1-4l2-2Z"/><path fill="#ECF4EB" d="M440 73h4a88.406 88.406 0 0 1 1 5c-1 1-1 1-3.563 1.063L439 79c-.625-1.875-.625-1.875-1-4l2-2Zm13-2c2.125.375 2.125.375 4 1l-1 5-5 1c-.125-2.375-.125-2.375 0-5l2-2Z"/><path fill="#F0F4EF" d="M455 704c1.675.286 3.344.618 5 1v4l-5 1a88.406 88.406 0 0 1-1-5l1-1Z"/><path fill="#E2ECE1" d="M510 702c2.063.438 2.063.438 4 1v5c-1.875.625-1.875.625-4 1l-2-2c.536-3.536.536-3.536 2-5Z"/><path fill="#E4EDE3" d="m427 701-1 5-4 1-1-6c2.49-1.245 3.41-.777 6 0Z"/><path fill="#E9F1E8" d="M411 699c1.675.286 3.344.618 5 1l-1 5h-4a88.406 88.406 0 0 1-1-5l1-1Z"/><path fill="#F3F7F2" d="M339 674c1.675.286 3.344.618 5 1l-1 5-5-1c0-4 0-4 1-5Z"/><path fill="#E9F2E8" d="M621.563 665.938 624 666c.625 1.875.625 1.875 1 4l-2 2c-2.125-.375-2.125-.375-4-1-.563-1.938-.563-1.938-1-4 1-1 1-1 3.563-1.063Z"/><path fill="#F0F6EF" d="M274 633c1.675.286 3.344.618 5 1v4l-5 1a88.406 88.406 0 0 1-1-5l1-1Z"/><path fill="#E6F0E5" d="M193 539c2.125.375 2.125.375 4 1 .563 1.938.563 1.938 1 4-1 1-1 1-3.563 1.063L192 545c-.625-1.875-.625-1.875-1-4l2-2Z"/><path fill="#F2F7F1" d="M158 440c2.125.375 2.125.375 4 1 .563 1.938.563 1.938 1 4-1 1-1 1-3.563 1.063L157 446c-.625-1.875-.625-1.875-1-4l2-2Z"/><path fill="#E6F0E5" d="M164 299c1.675.286 3.344.618 5 1l-1 5-5-1c0-4 0-4 1-5Z"/><path fill="#EDF4EC" d="M171 279c1.675.286 3.344.618 5 1l-1 5-5-1c0-4 0-4 1-5Z"/><path fill="#E8F1E7" d="M754.563 245.938 757 246c.625 1.875.625 1.875 1 4l-2 2c-2.125-.375-2.125-.375-4-1-.563-1.938-.563-1.938-1-4 1-1 1-1 3.563-1.063Z"/><path fill="#ECF4EB" d="M615 95c2.125.375 2.125.375 4 1 .563 1.938.563 1.938 1 4-1 1-1 1-3.563 1.063L614 101c-.625-1.875-.625-1.875-1-4l2-2Z"/><path fill="#E5F0E4" d="M358 92c2.063.438 2.063.438 4 1 .625 1.875.625 1.875 1 4l-2 2c-2.125-.375-2.125-.375-4-1a99.984 99.984 0 0 1 0-5l1-1Z"/><path fill="#EAF2E9" d="M510 63c1.675.286 3.344.618 5 1v4l-5 1a88.406 88.406 0 0 1-1-5l1-1Z"/><path fill="#F0F5EF" d="M572 688c1.675.286 3.344.618 5 1l-1 5h-5a99.984 99.984 0 0 1 0-5l1-1Z"/><path fill="#EAF2E9" d="m256 614-1 5c-1.938.563-1.938.563-4 1-1-1-1-1-1.063-3.563L250 614c2.49-1.245 3.41-.777 6 0Z"/><path fill="#F2F7F1" d="M187 530c2.625.375 2.625.375 5 1v4l-5 1-2-4 2-2Z"/><path fill="#E9F2E8" d="M183 521c2.625.375 2.625.375 5 1l-1 4-5 1c-.625-1.875-.625-1.875-1-4l2-2Z"/><path fill="#E7F1E6" d="M784 433c2.125.375 2.125.375 4 1l-1 5-4 1c-.625-2.375-.625-2.375-1-5l2-2Z"/><path fill="#F7FAF7" d="M145 392c2.063.438 2.063.438 4 1v5l-3 1-3-2c.875-3.875.875-3.875 2-5Z"/><path fill="#F3F8F3" d="M783 347h5l1 5a88.406 88.406 0 0 1-5 1c-1-1-1-1-1.063-3.563L783 347Z"/><path fill="#E8F1E7" d="M185 247c2.125.375 2.125.375 4 1l1 4-4 2-3-5 2-2Z"/><path fill="#E7F1E6" d="m664 123 4 2-1 5-5-1c.875-4.875.875-4.875 2-6Z"/><path fill="#ECF4EB" d="m579 91 5 1 1 4-5 1c-1.063-1.875-1.063-1.875-2-4l1-2Z"/><path fill="#E3EFE2" d="m367 89 4 1c.625 1.875.625 1.875 1 4l-2 2c-2.125-.375-2.125-.375-4-1l1-6Z"/><path fill="#E9F2E8" d="M564 74c1.675.286 3.344.618 5 1l-1 5-5-1c0-4 0-4 1-5Z"/><path fill="#EFF5EE" d="M504 73c2.063.188 2.063.188 4 1l1 3-1 2h-5c-.625-1.875-.625-1.875-1-4l2-2Z"/><path fill="#EBF2EA" d="M331 682c1.675.286 3.344.618 5 1l1 3-1 2-5-1c-.563-1.938-.563-1.938-1-4l1-1Z"/><path fill="#EFF6EF" d="m310 661 5 1-1 5-5-1 1-5Z"/><path fill="#F5F9F4" d="m220 583 5 1-1 5-5-1 1-5Z"/><path fill="#EEF5ED" d="m750 535 4 2-1 5h-4c-.625-1.813-.625-1.813-1-4l2-3Z"/><path fill="#F2F7F1" d="m767 498 5 1-1 5-5-1 1-5Z"/><path fill="#ECF4EB" d="m153 387 5 1-1 5-5-1 1-5Z"/><path fill="#EFF5EE" d="m143 374 5 1-1 5-5-1 1-5Z"/><path fill="#FCFDFB" d="m154 353 5 1-1 5-5-1 1-5Z"/><path fill="#EEF5ED" d="M172 291v5h-5l-1-5c2.49-1.245 3.41-.777 6 0Z"/><path fill="#F3F8F2" d="m742 226 5 1-1 5-5-1 1-5Z"/><path fill="#EEF5ED" d="m689 159 5 1-1 5-5-1 1-5Z"/><path fill="#F3F8F3" d="M665 137c2.125.375 2.125.375 4 1l-1 5h-4c-.625-1.875-.625-1.875-1-4l2-2Z"/><path fill="#DAE9D8" d="M288 126c2.063.438 2.063.438 4 1 1.125 3.75 1.125 3.75 0 6l-4-1a88.406 88.406 0 0 1-1-5l1-1Z"/><path fill="#EEF5ED" d="m325 105 5 1-1 5-5-1 1-5Z"/><path fill="#E8F1E7" d="M407 78c2.625.375 2.625.375 5 1l-1 4-4 1-2-4 2-2Z"/><path fill="#E6F0E5" d="m431 59 4 2-1 4-4 1c-.625-2.375-.625-2.375-1-5l2-2Z"/><path fill="#EAF1E9" d="M466 704c2.063.438 2.063.438 4 1v5c-1.938.563-1.938.563-4 1-1-1-1-1-1.125-3.5C465 705 465 705 466 704Z"/><path fill="#EAF2E9" d="M390 692c2.125.375 2.125.375 4 1v5h-5c-.625-1.875-.625-1.875-1-4l2-2Z"/><path fill="#E2EDE1" d="M562.563 690.938 565 691c.563 1.938.563 1.938 1 4-1 1-1 1-3.563 1.063L560 696c-.563-1.938-.563-1.938-1-4 1-1 1-1 3.563-1.063Z"/><path fill="#F8FBF8" d="M303.563 654.938 306 655l-1 5-4 1a88.406 88.406 0 0 1-1-5c1-1 1-1 3.563-1.063Z"/><path fill="#F3F8F2" d="M283 654c2.063.438 2.063.438 4 1 .563 1.938.563 1.938 1 4-1 1-1 1-3.563 1.063L282 660a99.984 99.984 0 0 1 0-5l1-1Z"/><path fill="#F2F7F1" d="m243 606 5 1 1 3-1 2h-5v-6Z"/><path fill="#F0F6EF" d="m190 561 5 1 1 4a88.406 88.406 0 0 1-5 1c-1-1-1-1-1.063-3.563L190 561Z"/><path fill="#F0F6F0" d="M204 554c2.063.438 2.063.438 4 1 .563 1.938.563 1.938 1 4-1 1-1 1-3.563 1.063L203 560a99.984 99.984 0 0 1 0-5l1-1Z"/><path fill="#F6F9F6" d="M170.563 481.938 173 482c.563 1.938.563 1.938 1 4-1 1-1 1-3.563 1.063L168 487c-.563-1.938-.563-1.938-1-4 1-1 1-1 3.563-1.063Z"/><path fill="#E8F1E7" d="M145 427c2.125.375 2.125.375 4 1v5h-5c-.625-1.875-.625-1.875-1-4l2-2Z"/><path fill="#EBF3EA" d="M142 404c2.125.375 2.125.375 4 1v5h-5c-.625-1.875-.625-1.875-1-4l2-2Z"/><path fill="#E5F0E4" d="M786 380c1.675.286 3.344.618 5 1v4l-5 1a88.406 88.406 0 0 1-1-5l1-1Z"/><path fill="#E0EDDF" d="M768.563 275.938 771 276c.563 1.938.563 1.938 1 4-1 1-1 1-3.563 1.063L766 281c-.563-1.938-.563-1.938-1-4 1-1 1-1 3.563-1.063Z"/><path fill="#DFECDD" d="m219 195 5 1-1 5-5-1 1-5Z"/><path fill="#EBF3EA" d="M248 161c2.125.375 2.125.375 4 1l-1 5h-4c-.625-1.875-.625-1.875-1-4l2-2Z"/><path fill="#F1F7F0" d="M681 137c2.063.438 2.063.438 4 1v4c-3.75 1.125-3.75 1.125-6 0 .875-3.875.875-3.875 2-5Z"/><path fill="#F8FBF8" d="M626 97c2.125.375 2.125.375 4 1v5h-5c-.625-1.875-.625-1.875-1-4l2-2Z"/><path fill="#F7FAF7" d="M346 96c1.675.286 3.344.618 5 1v4l-5 1a88.406 88.406 0 0 1-1-5l1-1Z"/><path fill="#EBF3EA" d="M595 82c2.063.438 2.063.438 4 1v5c-1.938.563-1.938.563-4 1-1-1-1-1-1.125-3.5C594 83 594 83 595 82Z"/><path fill="#EFF5EE" d="M417 76c1.675.286 3.344.618 5 1l-1 5h-4a88.406 88.406 0 0 1-1-5l1-1Z"/><path fill="#EBF3EA" d="M461 71c2.063.438 2.063.438 4 1 .563 1.938.563 1.938 1 4-1 1-1 1-3.563 1.063L460 77a99.984 99.984 0 0 1 0-5l1-1Z"/><path fill="#E7EFE6" d="M476 705c1.675.286 3.344.618 5 1l-1 4-4 1a88.406 88.406 0 0 1-1-5l1-1Z"/><path fill="#EFF4EF" d="M432 703c1.675.286 3.344.618 5 1l-1 5-4-1c-.563-1.938-.563-1.938-1-4l1-1Z"/><path fill="#E8F0E7" d="M372 698c1.675.286 3.344.618 5 1l-1 4-4 1a88.406 88.406 0 0 1-1-5l1-1Z"/><path fill="#E7F0E6" d="M543 696c2.063.438 2.063.438 4 1l1 4-5 1a88.406 88.406 0 0 1-1-5l1-1Z"/><path fill="#EEF4ED" d="M380 689c1.675.286 3.344.618 5 1l-1 5-4-1c-.563-1.938-.563-1.938-1-4l1-1Z"/><path fill="#EFF5EE" d="M348 681c1.675.286 3.344.618 5 1l-1 4-4 1a88.406 88.406 0 0 1-1-5l1-1Z"/><path fill="#ECF3EB" d="M218 595c1.675.286 3.344.618 5 1l-1 5-4-1c-.563-1.938-.563-1.938-1-4l1-1Z"/><path fill="#E7F1E6" d="M202 579c1.675.286 3.344.618 5 1l-1 4-4 1a88.406 88.406 0 0 1-1-5l1-1Z"/><path fill="#E6F0E5" d="m745 545 5 1 1 4a88.406 88.406 0 0 1-5 1c-1-1-1-1-1.063-3.563L745 545Z"/><path fill="#E3EEE2" d="M168 515c2.063.438 2.063.438 4 1l1 4-5 1a88.406 88.406 0 0 1-1-5l1-1Z"/><path fill="#EDF4ED" d="m781 444 4 1 1 5h-5c-1.125-3.75-1.125-3.75 0-6Z"/><path fill="#EBF3EB" d="M144 337c1.675.286 3.344.618 5 1l-1 5-4-1c-.563-1.938-.563-1.938-1-4l1-1Z"/><path fill="#F4F8F4" d="M160 321h4v5c-3.75 1.125-3.75 1.125-6 0 .875-3.875.875-3.875 2-5Z"/><path fill="#EEF5ED" d="M778 314c1.675.286 3.344.618 5 1l-1 5-4-1c-.563-1.938-.563-1.938-1-4l1-1Zm-616-3c1.675.286 3.344.618 5 1l-1 5-4-1c-.563-1.938-.563-1.938-1-4l1-1Z"/><path fill="#F4F8F4" d="M181 259c2.063.438 2.063.438 4 1l-1 5-5-1c.875-3.875.875-3.875 2-5Z"/><path fill="#EBF3EA" d="M190 239c2.125.375 2.125.375 4 1v4l-4 1-2-4 2-2Z"/><path fill="#F4F8F4" d="M747 235h5v5c-1.875.625-1.875.625-4 1l-2-2c.375-2.125.375-2.125 1-4Z"/><path fill="#F3F8F3" d="M226 186c1.675.286 3.344.618 5 1l-1 4-4 1a88.406 88.406 0 0 1-1-5l1-1Z"/><path fill="#EEF5EE" d="M728 184c2.063.438 2.063.438 4 1l-1 5-5-1c.875-3.875.875-3.875 2-5Z"/><path fill="#F3F8F3" d="M655 131c1.675.286 3.344.618 5 1l-1 4-4 1a88.406 88.406 0 0 1-1-5l1-1Z"/><path fill="#E9F2E9" d="M377 86c1.675.286 3.344.618 5 1l-1 5-4-1c-.563-1.938-.563-1.938-1-4l1-1Z"/><path fill="#DEECDD" d="M574 75c2.063.438 2.063.438 4 1l-1 5-5-1c.875-3.875.875-3.875 2-5Z"/><path fill="#E9F1E8" d="M561 700c2.125.375 2.125.375 4 1l-1 5h-4c-.625-1.875-.625-1.875-1-4l2-2Z"/><path fill="#EEF4ED" d="m603 675 4 2v4h-5c-.625-1.875-.625-1.875-1-4l2-2Z"/><path fill="#F1F6F1" d="M330.563 670.938 333 671l-1 5h-4c-.563-1.938-.563-1.938-1-4 1-1 1-1 3.563-1.063Z"/><path fill="#F5F9F5" d="M303 670c1.675.286 3.344.618 5 1l-1 4-4 1a88.406 88.406 0 0 1-1-5l1-1Z"/><path fill="#ECF4EB" d="M726 576c2.063.438 2.063.438 4 1l1 4-5 1a88.406 88.406 0 0 1-1-5l1-1Z"/><path fill="#EEF5ED" d="M198 569c1.675.286 3.344.618 5 1l-1 4h-5c0-4 0-4 1-5Z"/><path fill="#ECF4EC" d="m175 492 4 2-1 4h-5c.875-4.875.875-4.875 2-6Z"/><path fill="#F0F6F0" d="M786 370c2.063.438 2.063.438 4 1v5h-4a88.406 88.406 0 0 1-1-5l1-1Z"/><path fill="#F4F9F4" d="M777.563 303.938 780 304l-1 5h-4c-.563-1.938-.563-1.938-1-4 1-1 1-1 3.563-1.063Z"/><path fill="#F3F8F2" d="m174 269 5 1v5l-5-1-1-3 1-2Z"/><path fill="#E2EEE1" d="m181 229 4 2-2 5-4-2c.875-3.875.875-3.875 2-5Z"/><path fill="#F3F8F2" d="M472 71c2.063.438 2.063.438 4 1l1 4-5 1a88.406 88.406 0 0 1-1-5l1-1Z"/><path fill="#E2EDE0" d="m543 68 4 1-1 5-5-1 2-5Z"/><path fill="#E3EEE2" d="m530 66 4 2v4h-5c-.625-1.875-.625-1.875-1-4l2-2Z"/><path fill="#E4EFE3" d="m443 61 4 1-1 5-5-1 2-5Z"/><path fill="#E0EBDF" d="M415 709c2.063.438 2.063.438 4 1v4l-4 1a88.406 88.406 0 0 1-1-5l1-1Z"/><path fill="#F7F9F7" d="M401 695h4v5l-5 1a99.984 99.984 0 0 1 0-5l1-1Z"/><path fill="#E1EDE0" d="m584 683 4 2-1 4-5-1c.875-3.875.875-3.875 2-5Z"/><path fill="#F2F7F1" d="M596 680c.625 1.875.625 1.875 1 4l-2 2c-2.125-.375-2.125-.375-4-1v-4c2-1 2-1 5-1Z"/><path fill="#DEEBDD" d="m708 616 4 2-1 4-5-1c.875-3.875.875-3.875 2-5Z"/><path fill="#E4EFE3" d="m211 605 4 1 1 4c-1.875.625-1.875.625-4 1l-2-2c.375-2.125.375-2.125 1-4Z"/><path fill="#DFECDE" d="m721 583 4 2-1 4-5-1c.875-3.875.875-3.875 2-5Z"/><path fill="#E2EEE0" d="M751 553c2.063.438 2.063.438 4 1v4l-4 1a88.406 88.406 0 0 1-1-5l1-1Z"/><path fill="#E6F0E5" d="M164 472c2.063.438 2.063.438 4 1v4l-4 1a88.406 88.406 0 0 1-1-5l1-1Z"/><path fill="#E7F1E6" d="m154 472 4 2-1 4-5-1c.875-3.875.875-3.875 2-5Z"/><path fill="#E4EFE3" d="M783 295c1.675.286 3.344.618 5 1l-1 4h-4c-.563-1.938-.563-1.938-1-4l1-1Zm-14-42c1.675.286 3.344.618 5 1l-1 4h-4c-.563-1.938-.563-1.938-1-4l1-1Z"/><path fill="#F3F8F2" d="M200 221c2.063.438 2.063.438 4 1l-1 5-4-1c0-4 0-4 1-5Z"/><path fill="#EAF3E9" d="m746 211 3 1v5l-3 1-2-1c.875-4.875.875-4.875 2-6Z"/><path fill="#E5F0E4" d="m286 115 4 2-1 4-5-1c.875-3.875.875-3.875 2-5Z"/><path fill="#F1F7F1" d="M395 81h5c.563 1.938.563 1.938 1 4-1 1-1 1-3.563 1.063L395 86v-5Z"/><path fill="#E6F0E5" d="m465 61 4 2-1 4-5-1c.875-3.875.875-3.875 2-5Z"/><path fill="#E9F0E9" d="M460 715h4v5l-4 1a88.406 88.406 0 0 1-1-5l1-1Z"/><path fill="#ECF2EB" d="M385 702h5l-1 5-5-1 1-4Z"/><path fill="#F1F5F0" d="M521 701h4v5l-4 1a88.406 88.406 0 0 1-1-5l1-1Z"/><path fill="#F0F5F0" d="M532 699h4v6l-5-1 1-5Z"/><path fill="#EDF4EC" d="M311 673h5l1 4-5 1-1-5Z"/><path fill="#ECF3EB" d="m275 649 5 1-1 4h-5l1-5Z"/><path fill="#F1F7F1" d="M257 622c2.063.438 2.063.438 4 1l-1 5h-4a99.984 99.984 0 0 1 0-5l1-1Z"/><path fill="#F0F6F0" d="M177 501c1.675.286 3.344.618 5 1v4h-5c-.563-1.938-.563-1.938-1-4l1-1Z"/><path fill="#DEEBDC" d="M130 351c2.063.438 2.063.438 4 1l1 4-4 1-2-5 1-1Z"/><path fill="#F4F8F3" d="M144 350h4v5l-4 1a88.406 88.406 0 0 1-1-5l1-1Z"/><path fill="#D9E9D8" d="M795 326c2.063.438 2.063.438 4 1l-1 5-4-1c0-4 0-4 1-5Z"/><path fill="#F3F8F3" d="M789 314h4v5l-4 1a88.406 88.406 0 0 1-1-5l1-1Z"/><path fill="#F1F7F0" d="m779 271 4 1v5l-5-1 1-5Z"/><path fill="#ECF4EC" d="m194 229 4 2v4l-5-1c0-4 0-4 1-5Z"/><path fill="#DFECDE" d="m685 127 5 1-1 4h-5l1-5Z"/><path fill="#E4EFE3" d="M646 110h4v5l-4 1a88.406 88.406 0 0 1-1-5l1-1Z"/><path fill="#F6F9F5" d="m335 100 5 1-1 4h-5l1-5Z"/><path fill="#F7FAF7" d="m492 73 5 1-1 5-4-1v-5Z"/><path fill="#EDF4EC" d="M482 71h4l1 5h-6l1-5Z"/><path fill="#EFF3EE" d="m527 710 5 1-1 4-5-1 1-4Z"/><path fill="#ECF2EC" d="m404 707 5 1-1 4-5-1 1-4Z"/><path fill="#E4EEE2" d="m614 683 4 1-1 5-4-1 1-5Z"/><path fill="#EEF5ED" d="m641 656 5 1-1 4-5-1 1-4Z"/><path fill="#E6F0E5" d="m664 654 4 1-1 5h-4l1-6Z"/><path fill="#EFF6EF" d="m649 650 4 1-1 5-4-1 1-5Z"/><path fill="#F9FBF9" d="m657 643 5 1-1 4-5-1 1-4Z"/><path fill="#EAF2E9" d="m666 637 5 1-1 4-5-1 1-4Z"/><path fill="#F0F6EF" d="m231 611 5 1-1 4-5-1 1-4Z"/><path fill="#E6F0E5" d="m718 599 5 1-1 4-5-1 1-4Z"/><path fill="#EBF3EA" d="m739 556 5 1-1 4-5-1 1-4Z"/><path fill="#EDF4EC" d="m165 503 4 1 1 4c-1.875.625-1.875.625-4 1l-2-2c.375-2.125.375-2.125 1-4Zm608-25 5 1-1 4-5-1 1-4Z"/><path fill="#E4EFE3" d="m785 422 5 1-1 4-5-1 1-4Z"/><path fill="#ECF4EB" d="M787 403h4l-1 6-4-1 1-5Z"/><path fill="#E9F2E8" d="M782 338h5l1 4-5 1-1-5Z"/><path fill="#F7FAF7" d="M155 295h3v5l-5 1c.875-4.875.875-4.875 2-6Z"/><path fill="#F1F7F0" d="m175 243 4 1-1 5-4-1 1-5Z"/><path fill="#E9F2E8" d="m192 215 5 1-1 4-5-1 1-4Z"/><path fill="#F1F7F0" d="m706 159 5 1-1 4-5-1 1-4Z"/><path fill="#E3EEE1" d="M262 148c2.063.438 2.063.438 4 1v4h-4c-.563-1.938-.563-1.938-1-4l1-1Z"/><path fill="#EDF4EC" d="M270 140c2.063.438 2.063.438 4 1v4h-4c-.563-1.938-.563-1.938-1-4l1-1Zm9-7 4 1-1 5-4-1 1-5Z"/><path fill="#E0EDDF" d="m596 72 4 2-1 4-4-1c0-4 0-4 1-5Z"/><path fill="#EFF5EE" d="m419 65 5 1-1 4-5-1 1-4Z"/><path fill="#ECF4EC" d="m455 61 4 1-1 5-4-1 1-5Z"/><path fill="#E3EDE2" d="M487 705h3v5l-4 1c-.625-1.875-.625-1.875-1-4l2-2Z"/><path fill="#EAF1E9" d="m502 705-1 4-5-1v-3c2.49-1.245 3.41-.777 6 0Zm-161-16h4l-1 5h-4l1-5Z"/><path fill="#F4F8F4" d="m265 644 5 1v4l-5-1v-4Z"/><path fill="#E0EDDF" d="m717 618 4 1-1 4h-4l-1-2 2-3Z"/><path fill="#D4E5D2" d="M758 546c1.675.286 3.344.618 5 1v3l-5 1c-.563-1.938-.563-1.938-1-4l1-1Z"/><path fill="#F1F7F0" d="M755 527h5v5h-5v-5Z"/><path fill="#DFECDE" d="m758 518 5 1v4l-5-1v-4Z"/><path fill="#EDF4ED" d="M163 494h3c1.125 3.75 1.125 3.75 0 6h-4a99.984 99.984 0 0 1 0-5l1-1Z"/><path fill="#EBF3EA" d="m140 459 4 1-1 5-4-1 1-5Zm660.563-78.062L803 381l-1 4-4 1c-.563-1.938-.563-1.938-1-4 1-1 1-1 3.563-1.063Z"/><path fill="#E9F2E8" d="M144 362c2.063.438 2.063.438 4 1l1 4h-5c-.563-1.938-.563-1.938-1-4l1-1Z"/><path fill="#EEF5ED" d="M147 326h3v6l-5-1c.875-3.875.875-3.875 2-5Z"/><path fill="#E9F2E8" d="m138 322 5 1-1 4-5-1 1-4Z"/><path fill="#E4EFE3" d="m152 307 5 1-1 4-5-1 1-4Z"/><path fill="#EAF3EA" d="M205 212c1.675.286 3.344.618 5 1l-1 4h-4c-.563-1.938-.563-1.938-1-4l1-1Z"/><path fill="#F8FAF7" d="M239 170h5l-1 5-4-1v-4Z"/><path fill="#E3EEE1" d="m249 144 4 1-1 5-4-1 1-5Z"/><path fill="#E3EEE2" d="m259 135 5 1-1 4h-4v-5Z"/><path fill="#F5F9F5" d="M306 117h5v4l-4 1-1-5Z"/><path fill="#F3F8F2" d="M327.563 93.938 330 94l-1 4-4 1c-.563-1.938-.563-1.938-1-4 1-1 1-1 3.563-1.063Z"/><path fill="#F0F6F0" d="M604 87c2.063.438 2.063.438 4 1l1 4h-5c-.563-1.938-.563-1.938-1-4l1-1Z"/><path fill="#E8F1E7" d="M346 85h4l-1 6h-3a88.406 88.406 0 0 1-1-5l1-1Z"/><path fill="#F4F8F3" d="M555 69c2.063.438 2.063.438 4 1l-1 4h-5c.875-3.875.875-3.875 2-5Z"/><path fill="#EEF2ED" d="m483 717 4 1-1 5-4-2 1-4Z"/><path fill="#E6EEE5" d="M427 712h5l-1 5h-4v-5Z"/><path fill="#E7F0E6" d="m611 671 4 1-1 5-4-2 1-4Z"/><path fill="#EAF3E9" d="m698 626 3 1-1 5-4-1c.875-3.875.875-3.875 2-5Z"/><path fill="#F6F9F6" d="M240 620h5l-1 5h-4v-5Z"/><path fill="#F1F7F1" d="m699 605 4 2-1 4-4-1 1-5Z"/><path fill="#E6F0E5" d="m706 599 5 1-2 4-4-1 1-4Z"/><path fill="#F8FBF8" d="m196 586 4 2-1 4-4-1 1-5Z"/><path fill="#E2EDE0" d="m198 547 4 1v4h-5l1-5Z"/><path fill="#F3F8F3" d="m181 542 4 1v4l-5-1 1-4Z"/><path fill="#E7F1E6" d="m782 491 4 1-1 4h-4l1-5Z"/><path fill="#EAF2E9" d="m776 465 5 1v4h-5v-5Z"/><path fill="#EBF3EA" d="m794 417 5 1-2 4-4-1 1-4Z"/><path fill="#E5F0E4" d="m786 413 5 1-2 4-4-1 1-4Z"/><path fill="#E7F1E6" d="m134 400 4 1-1 4-5-1 2-4Z"/><path fill="#ECF3EB" d="m135 341 5 1v4h-5v-5Z"/><path fill="#EAF3E9" d="m780 327 5 1v4h-5v-5Z"/><path fill="#DBE9D9" d="m162 272 4 1-1 4-5-1 2-4Z"/><path fill="#ECF4EB" d="m254 154 4 1-1 5-4-2 1-4Z"/><path fill="#E1EDE0" d="m712 150 4 1-1 4-5-1 2-4Z"/><path fill="#E7F1E6" d="m691 146 5 1-2 4-4-1 1-4Z"/><path fill="#E9F2E8" d="m320 100-1 4-4 1-1-4c2-1 2-1 6-1Z"/><path fill="#EFF4EF" d="M539 709h4v5l-5-1 1-4Z"/><path fill="#DDEADB" d="M314 686h5v4h-4l-1-4Z"/><path fill="#F5F9F4" d="M245 629h5l-1 5-4-1v-4Z"/><path fill="#EBF3EA" d="M219 617h5l1 3-1 2-4-1-1-4Z"/><path fill="#F7FAF6" d="m744 563 5 1-1 4h-4v-5Z"/><path fill="#EEF5ED" d="m761 535 5 1-1 4h-4v-5Z"/><path fill="#F1F7F0" d="m763 509 4 1v4h-4v-5Z"/><path fill="#EBF3EA" d="m131 377 4 1-1 5-4-2 1-4Z"/><path fill="#F9FBF9" d="M167 265h4v5l-5-1 1-4Z"/><path fill="#E7F1E6" d="m765 242 5 1-1 4h-4v-5Zm3-23 4 1v4h-5l1-5Z"/><path fill="#E6F0E5" d="M205 195h4v5l-5-1 1-4Z"/><path fill="#F4F8F4" d="m671 131 5 1v4l-5-1v-4Z"/><path fill="#EFF5EE" d="m376 73 5 1-1 4h-4v-5Z"/><path fill="#EDF4EC" d="m395 67 5 1-1 4h-4v-5Z"/><path fill="#F2F7F2" d="m476 61 4 1v4h-5l1-5Z"/><path fill="#E5EDE4" d="m437 716 5 1-1 4h-4v-5Z"/><path fill="#F2F5F2" d="M475 715h4l-1 5-4-1 1-4Z"/><path fill="#D8E6D7" d="M449 713h4l-1 5-4-1 1-4Z"/><path fill="#F2F5F2" d="m516 711 4 1v4l-5-1 1-4Z"/><path fill="#EBF3EB" d="m634 672 4 1v4l-5-1 1-4Z"/><path fill="#E7F1E6" d="m631 661 4 1v4l-5-1 1-4Z"/><path fill="#DCEADB" d="m682 641 4 2-1 3-5-1 2-4Z"/><path fill="#F1F7F1" d="m209 588 5 1-1 4-4-1v-4Z"/><path fill="#ECF4EB" d="m740 575 4 1-1 4h-4l1-5Z"/><path fill="#E9F2E8" d="M751 574h5l-1 4-4 1v-5Zm-570-6 4 2-1 3-5-1 2-4Z"/><path fill="#DDEBDC" d="m789 462 4 1v4l-5-1 1-4Z"/><path fill="#E4EFE3" d="m781 454 4 1-1 4h-4l1-5Z"/><path fill="#ECF4EC" d="m148 451 4 1v4l-5-1 1-4Z"/><path fill="#E5F0E4" d="m791 449 4 1-1 4h-4l1-5Z"/><path fill="#E9F2E8" d="m137 445 4 2-1 4-4-2 1-4Z"/><path fill="#F2F7F1" d="m143 416 4 1-1 4h-4l1-5Z"/><path fill="#F0F6F0" d="m143 384 5 1v4l-5-1v-4Z"/><path fill="#EEF5ED" d="m795 359 4 1v4l-5-1 1-4Z"/><path fill="#EFF5EE" d="m787 305 4 1v4l-5-1 1-4Z"/><path fill="#E0ECDE" d="M773 265h6l-1 4-5-1v-3Z"/><path fill="#E9F2E8" d="m760 230 4 1-1 4h-4l1-5Z"/><path fill="#F6FAF5" d="m753 222 5 1-1 4-4-1v-4Z"/><path fill="#EFF5EE" d="m733 193 5 1-1 4-4-1v-4Z"/><path fill="#E8F1E7" d="m210 184 5 1-1 4-4-1v-4Z"/><path fill="#ECF4EB" d="M218 177h4l-1 5-4-1 1-4Z"/><path fill="#EDF4EC" d="m298 122 5 1-1 4-4-1v-4Z"/><path fill="#F0F6EF" d="m637 104 4 1v4l-5-1 1-4Z"/><path fill="#EAF3E9" d="m583 82 4 1v4l-5-1 1-4Z"/><path fill="#DFECDE" d="m619 80 4 1-1 4h-4l1-5Z"/><path fill="#EEF5ED" d="M606 77h3l1 5h-5l1-5Z"/><path fill="#E2EEE1" d="m582 69 5 1-1 4-4-1v-4Z"/><path fill="#EFF5EE" d="M529 51h4l-1 5-4-1 1-4Z"/><path fill="#E1EDDF" d="m504 47 4 1v4l-5-1 1-4Z"/><path fill="#E1EAE0" d="m536 719 4 1-1 4-4-1 1-4Z"/><path fill="#EFF4EF" d="M342 702c2.063.438 2.063.438 4 1v4h-4c-.563-1.938-.563-1.938-1-4l1-1Z"/><path fill="#EBF2EA" d="M331 695h4l-1 5-4-1 1-4Z"/><path fill="#EEF4ED" d="m282 668 4 1v4h-4v-5Z"/><path fill="#EBF3EA" d="m242 640 4 1-1 4-4-1 1-4Z"/><path fill="#EEF5ED" d="m687 631 4 1v4h-5l1-5Z"/><path fill="#E2EEE1" d="m684 622 3 1v5l-4-1 1-5Zm38-9 4 1-1 4-4-1 1-4Z"/><path fill="#F2F7F2" d="M226 605h4v4l-4 1c-.563-1.938-.563-1.938-1-4l1-1Z"/><path fill="#EEF5ED" d="m204 595 4 1-1 4-4-1 1-4Z"/><path fill="#ECF4EC" d="M712 592h4l1 4-4 1-1-5Z"/><path fill="#EBF3EA" d="m191 577 4 1-1 4-4-1 1-4Z"/><path fill="#E6F0E5" d="m187 551 4 1-1 4-4-1 1-4Z"/><path fill="#EBF3EA" d="m770 487 4 1-1 5-3-1v-5Z"/><path fill="#F0F6EF" d="m149 461 4 1-1 4-4-1 1-4Z"/><path fill="#E6F0E5" d="M791 439h5l-1 5-4-2v-3Z"/><path fill="#F2F7F1" d="M798 395h5l-1 4h-4v-4Z"/><path fill="#E7F1E6" d="m131 390 4 1-1 4-4-1 1-4Z"/><path fill="#E8F1E7" d="m800 372 4 1-1 4-4-1 1-4Z"/><path fill="#E2EEE1" d="m145 294 4 1-1 4-4-1 1-4Z"/><path fill="#EBF3EA" d="M770 233h4l1 4-4 1-1-5Z"/><path fill="#F0F6EF" d="M186 221h3l-1 5h-4c.875-3.875.875-3.875 2-5Z"/><path fill="#EDF4EC" d="m212 204 4 1-1 4-4-1 1-4Z"/><path fill="#F3F8F3" d="m744 203 4 1-1 4-4-1 1-4Z"/><path fill="#FCFDFB" d="m722 178 4 1-1 4-4-1 1-4Z"/><path fill="#F7FAF7" d="M233 178h4l-1 5-4-1 1-4Z"/><path fill="#E6F1E5" d="m730 165 4 1-1 4-4-1 1-4Z"/><path fill="#F2F7F1" d="m701 141 4 1-1 4-4-1 1-4Z"/><path fill="#F1F6F0" d="m653 116 4 1-1 4-4-1 1-4Zm-337-4 4 1v4h-4v-5Z"/><path fill="#E4EEE3" d="M550 706h4l-1 4h-4l1-4Z"/><path fill="#EFF4EE" d="m393 706 5 1-1 4-4-2v-3Z"/><path fill="#E8F0E7" d="M351 693h5v4h-4l-1-4Z"/><path fill="#EDF4EC" d="M622 678h5v4h-5v-4Z"/><path fill="#EEF5EE" d="m644 667 3 1v4l-5-1 2-4Z"/><path fill="#E8F1E7" d="m294 662 5 1-2 4-3-1v-4Z"/><path fill="#ECF4EB" d="m653 660 4 1-2 4h-3l1-5Z"/><path fill="#F8FBF8" d="m691 616 4 2v3l-5-1 1-4Z"/><path fill="#F3F8F2" d="m167 534 4 1-2 4h-3l1-5Z"/><path fill="#E6F0E5" d="m784 512 3 1v4l-5-1 2-4Z"/><path fill="#F4F8F4" d="m146 441 5 1-1 3-5-1 1-3Z"/><path fill="#E4EFE3" d="m806 330 3 1-1 4h-4c.875-3.875.875-3.875 2-5Z"/><path fill="#EAF3E9" d="m797 297 4 1-1 4-4-1 1-4Z"/><path fill="#EBF3EA" d="M791 285h4l-1 5-4-2 1-3Z"/><path fill="#E5EFE3" d="m140 277 3 1-1 4h-4c.875-3.875.875-3.875 2-5Z"/><path fill="#F0F6EF" d="M154 266h4l-1 5-4-2 1-3Z"/><path fill="#E5EFE3" d="M714 168h4l-1 5-4-2 1-3Z"/><path fill="#E3EEE2" d="M234 161h4l-1 5-4-2 1-3Z"/><path fill="#EBF3EA" d="m719 157 3 1v4l-5-1 2-4Z"/><path fill="#EBF3EB" d="m295 112 5 1-2 4-3-1v-4Z"/><path fill="#E4EFE3" d="m516 53 3 1v4l-5-1 2-4Z"/><path fill="#DFE9DE" d="M442 725h5v4l-5-1v-3Z"/><path fill="#EFF4EF" d="M363 699h4v5l-4-1v-4Z"/><path fill="#E9F1E8" d="m595 693 3 1-1 4-4-1 2-4Z"/><path fill="#F0F5EF" d="m551 694 4 1v4h-4v-5Z"/><path fill="#F1F7F1" d="M261 656h4v4h-5l1-4Z"/><path fill="#EAF3E9" d="M683 651h3v5h-4l1-5Z"/><path fill="#ECF3EB" d="m733 565 4 1v4h-4v-5Z"/><path fill="#F3F8F3" d="m764 557 4 1v4h-4v-5Z"/><path fill="#E4EFE3" d="M156 484h3l1 3-1 2-4-1 1-4Z"/><path fill="#EFF6EF" d="m142 483 4 1v4h-4v-5Z"/><path fill="#E4EFE3" d="m786 472 4 1-2 4-3-1 1-4Z"/><path fill="#DAE9D8" d="m130 409 4 2-1 3-4-1 1-4Z"/><path fill="#E8F1E7" d="m807 404 4 1-1 4-4-2 1-3Z"/><path fill="#E5F0E4" d="m136 286 3 1-1 4-4-1 2-4Z"/><path fill="#F4F8F3" d="M779 241h3v5h-4l1-5Z"/><path fill="#F3F8F3" d="M276 124h4l-1 5h-3v-5Z"/><path fill="#DFECDE" d="m653 88 3 1-1 4-4-1 2-4Z"/><path fill="#F1F7F1" d="m364 79 4 1-2 4-3-1 1-4Z"/><path fill="#F3F8F2" d="m486 59 5 1v3h-5v-4Z"/><path fill="#EAF0EA" d="M499 724h5l-1 4-4-1v-3Z"/><path fill="#ECF2EB" d="M386 715h4l-1 5-3-1v-4Z"/><path fill="#E4EDE3" d="M583 709h4v4l-5-1 1-3Z"/><path fill="#EDF3EC" d="M572 699h4l-1 5-3-1v-4Z"/><path fill="#F2F7F2" d="m604 688 4 1v3h-5l1-4Z"/><path fill="#E8F1E7" d="M269 661h4l-1 4h-4l1-4Z"/><path fill="#DFECDE" d="m249 648 4 1-1 4h-3v-5Z"/><path fill="#F2F7F1" d="m701 638 3 1v4h-4l1-5Z"/><path fill="#F4F8F3" d="M676 629h4v4l-5-1 1-3Z"/><path fill="#EEF5ED" d="m711 608 4 1v4l-4-1v-4Z"/><path fill="#ECF4EB" d="m733 604 4 1v3h-5l1-4Z"/><path fill="#EFF6EF" d="m725 591 5 1-1 3h-4v-4Z"/><path fill="#F5F9F5" d="m176 557 5 1v3l-5-1v-3Z"/><path fill="#F0F6EF" d="m176 534 3 1v4h-4l1-5Z"/><path fill="#EAF2E9" d="m801 471 5 1-1 3h-4v-4Z"/><path fill="#E7F1E6" d="M119 371h4v4l-5-1 1-3Z"/><path fill="#F0F6EF" d="M782 253h3v5l-4-1 1-4Z"/><path fill="#EAF2E9" d="M158 252h5l-1 4-4-1v-3Z"/><path fill="#E2EEE1" d="M695 121h4v4l-5-1 1-3Z"/><path fill="#F9FBF9" d="m520 64 4 1-1 4h-3v-5Z"/><path fill="#EAF2E9" d="m559 62 5 1v3l-5-1v-3Z"/><path fill="#E6F0E5" d="m549 58 4 1v4l-4-1v-4Z"/><path fill="#EAF2E9" d="m539 54 4 1v3h-5l1-4Z"/><path fill="#EEF5ED" d="m436 50 5 1-1 3h-4v-4Z"/><path fill="#E6EDE5" d="M479 727h3l-1 5-3-1 1-4Z"/><path fill="#E1EAE0" d="m408 724 5 1-1 3-4-1v-3Zm-43-1 5 1-1 3-4-1v-3Z"/><path fill="#E7EFE6" d="m544 717 5 1-1 3-4-1v-3Z"/><path fill="#E7EEE6" d="m507 715 3 1v4l-4-1 1-4Z"/><path fill="#F1F6F1" d="m304 680 3 1v4l-4-1 1-4Z"/><path fill="#EDF4EC" d="m242 652 4 1-1 4-3-1v-4Z"/><path fill="#E5EFE4" d="m672 648 4 1v3l-5-1 1-3Z"/><path fill="#DBE9D9" d="m693 642 3 1-1 4h-3l1-5Z"/><path fill="#E2EEE1" d="m228 624 3 1v4l-4-1 1-4Z"/><path fill="#F0F6EF" d="m153 514 4 1v4h-3l-1-5Z"/><path fill="#D0E3CE" d="M802 452h3l-1 5-3-1 1-4Z"/><path fill="#E2EEE1" d="m124 451 3 1v4l-4-1 1-4Z"/><path fill="#E6F0E4" d="m806 418 5 1-1 3-4-1v-3Z"/><path fill="#F3F8F3" d="m130 367 3 1-1 4h-3l1-5Z"/><path fill="#DFECDE" d="m798 347 4 1-1 3h-4l1-4Z"/><path fill="#F3F7F2" d="M807 342h3l-1 5-3-1 1-4Z"/><path fill="#F1F7F0" d="M793 337h3l-1 5-3-1 1-4Z"/><path fill="#EDF4EC" d="M131 298h3l-1 5-3-1 1-4Z"/><path fill="#EEF5ED" d="M781 284h4l-1 4-4-1 1-3Z"/><path fill="#E4EFE3" d="m158 283 4 1v3l-5-1 1-3Z"/><path fill="#DEECDD" d="m148 283 3 1v4l-4-1 1-4Z"/><path fill="#F3F7F2" d="m171 231 4 1-1 3h-4l1-4Z"/><path fill="#D6E7D5" d="m755 203 3 1v4l-4-1 1-4Z"/><path fill="#DDEBDC" d="M205 175h3l-1 5-3-1 1-4Z"/><path fill="#E5F0E4" d="m241 154 4 1v3l-5-1 1-3Z"/><path fill="#E4EFE3" d="M699 151h3l-1 5-3-1 1-4Z"/><path fill="#E5EFE4" d="M274 113h3v5h-3c-.563-1.938-.563-1.938-1-4l1-1Z"/><path fill="#E8F1E7" d="M573 64h3l-1 5-3-1 1-4Z"/><path fill="#E2EEE1" d="m355 62 3 1v4l-4-1 1-4Z"/><path fill="#E9F2E8" d="M499 60h2v5h-4c.875-3.875.875-3.875 2-5Z"/><path fill="#F0F6EF" d="m470 50 5 1-1 3-4-1v-3Z"/><path fill="#E1EDDF" d="M450 46h3l-1 5h-3l1-5Z"/></svg>